# xmcd
#
# Track frame offsets: 
#        150
#        25062
#        36708
#        61321
#        77186
#        90188
#        106043
#        124756
#        142762
#        158705
#        174885
#        193953
#        213649
#        229269
#        249023
#        270025
#        297077
#        316072
#        333413
#        351583
#
# Disc length: 4773 seconds
#
# Revision: 0
# Processed by: cddbd v1.5.2PL0 Copyright (c) Steve Scherf et al.
# Submitted via: ExactAudioCopy v0.95b3
#
DISCID=0e12a314
DTITLE=The Rolling Stones  - Unsurpassed Masters Vol. 4 1970-1971  FLA
DTITLE=C
DYEAR=1900
DGENRE=
TTITLE0=Wild Horses
TTITLE1=You Gotta Move
TTITLE2=I Don't Know The Reason Why
TTITLE3=Sway
TTITLE4=Dancing In The Light
TTITLE5=Cocksucker Blues
TTITLE6=Shine A Light
TTITLE7=Alladin Story
TTITLE8=Leather Jacket
TTITLE9=Good Time Women
TTITLE10=Potted Shrimp
TTITLE11=Shake Your Hips
TTITLE12=Silver Train
TTITLE13=Sweet Virginia
TTITLE14=Stop Breaking Down
TTITLE15=Travellin' Man
TTITLE16=Brown Sugar
TTITLE17=I Ain't Lying
TTITLE18=All Down The Line
TTITLE19=Exile On Main Street Blues
EXTD=
EXTT0=
EXTT1=
EXTT2=
EXTT3=
EXTT4=
EXTT5=
EXTT6=
EXTT7=
EXTT8=
EXTT9=
EXTT10=
EXTT11=
EXTT12=
EXTT13=
EXTT14=
EXTT15=
EXTT16=
EXTT17=
EXTT18=
EXTT19=
PLAYORDER=
